<svg fill="currentColor" version="1.2" baseProfile="tiny-ps" xmlns="http://www.w3.org/2000/svg" viewBox="0 0 320 458" width="320" height="458">
	<path fill-rule="evenodd"  d="M219.69 230.97L47.79 59.07C35.43 46.71 35.43 26.67 47.79 14.32C60.14 1.96 80.18 1.96 92.54 14.32L286.83 208.6C293 214.78 296.09 222.88 296.09 230.97C296.09 239.07 292.99 247.17 286.83 253.34L92.53 447.63C80.18 459.99 60.14 459.99 47.79 447.63C35.43 435.27 35.43 415.24 47.79 402.88L219.69 230.97ZM342.83 -1L399.32 -1C402.67 -1 405.37 1.71 405.37 5.05L405.37 441.34C405.37 444.7 402.67 447.4 399.32 447.4L342.83 447.4C339.48 447.4 336.78 444.7 336.78 441.34L336.78 5.05C336.78 1.71 339.48 -1 342.83 -1Z" />
</svg>