<?xml version="1.0" encoding="UTF-8"?>
<svg width="1em" height="1em" viewBox="0 0 32 32" fill="currentColor" version="1.1" xmlns="http://www.w3.org/2000/svg" xmlns:xlink="http://www.w3.org/1999/xlink">
    <g id="c02_RF_M_Uni_Card" transform="translate(-20.000000, -72.000000)">
        <g id="btn_filter" transform="translate(20.000000, 72.000000)">
            <g id="Group" fill-rule="evenodd" transform="translate(7.000000, 8.000000)">
                <path fill="#FFFFFF" d="M16.9847682,0 C17.5454653,0 18,0.44771525 18,1 C18,1.23393651 17.9167345,1.4604694 17.7646909,1.6401844 L12.0447096,8.4 L12.045708,15 C12.045708,15.5522847 11.5911733,16 11.0304762,16 C10.4697792,16 10.0152445,15.5522847 10.0152445,15 L10.0143503,8.58166329 C10.0142831,8.0989115 10.1888291,7.63242658 10.5057776,7.2682935 L15.0914033,2 L15.0914033,2 L2.90862219,2 L7.49273215,7.26862435 C7.80938559,7.63256154 7.98382555,8.09868754 7.98390365,8.58109781 L7.98478097,14 L7.98478097,14 C7.98478097,14.5522847 7.53024623,15 6.96954922,15 C6.4088522,15 5.95431746,14.5522847 5.95431746,14 L5.95331902,8.401 L0.235334574,1.6401844 C-0.123614909,1.2159075 -0.0654176992,0.585342801 0.36532168,0.23177872 C0.547774057,0.0820162194 0.777757444,0 1.01525721,0 L16.9847682,0 Z" id="Path"></path>
            </g>
        </g>
    </g>
</svg>