<svg width="18" height="18" viewBox="0 0 18 18" fill="none" xmlns="http://www.w3.org/2000/svg">
<g filter="url(#filter0_i_874_9461)">
<path fill-rule="evenodd" clip-rule="evenodd" d="M0 1C0 0.447716 0.447715 0 1 0H17C17.5523 0 18 0.447715 18 1V17C18 17.5523 17.5523 18 17 18H1C0.447716 18 0 17.5523 0 17V1ZM1 4H17V17H1V4ZM16 9H12V12H16V9Z" fill="url(#paint0_linear_874_9461)"/>
</g>
<path opacity="0.3" fill-rule="evenodd" clip-rule="evenodd" d="M6 5H2V8H6V5ZM11 5H7V8H11V5ZM12 5H16V8H12V5ZM6 9H2V12H6V9ZM7 9H11V12H7V9ZM6 13H2V16H6V13ZM7 13H11V16H7V13ZM16 13H12V16H16V13Z" fill="#D9D9D9"/>
<defs>
<filter id="filter0_i_874_9461" x="0" y="0" width="18" height="18" filterUnits="userSpaceOnUse" color-interpolation-filters="sRGB">
<feFlood flood-opacity="0" result="BackgroundImageFix"/>
<feBlend mode="normal" in="SourceGraphic" in2="BackgroundImageFix" result="shape"/>
<feColorMatrix in="SourceAlpha" type="matrix" values="0 0 0 0 0 0 0 0 0 0 0 0 0 0 0 0 0 0 127 0" result="hardAlpha"/>
<feOffset dy="1"/>
<feComposite in2="hardAlpha" operator="arithmetic" k2="-1" k3="1"/>
<feColorMatrix type="matrix" values="0 0 0 0 1 0 0 0 0 1 0 0 0 0 1 0 0 0 1 0"/>
<feBlend mode="normal" in2="shape" result="effect1_innerShadow_874_9461"/>
</filter>
<linearGradient id="paint0_linear_874_9461" x1="0" y1="0" x2="0" y2="18" gradientUnits="userSpaceOnUse">
<stop stop-color="#ECECEC"/>
<stop offset="1" stop-color="#DEDEDE"/>
</linearGradient>
</defs>
</svg>
