<svg xmlns="http://www.w3.org/2000/svg" fill="currentColor" width="1em" height="1em" viewBox="8 8 24 24">
    <path fill="#FFF" d="M12.295 12.295c.394-.393 1.032-.393 1.426 0l6.278 6.28 6.28-6.28c.394-.393 1.032-.393 1.426 0 .393.394.393 1.032 0 1.426L21.424 20l6.28 6.28c.394.393.394 1.031 0 1.425-.393.393-1.031.393-1.425 0L20 21.425l-6.278 6.28c-.394.393-1.032.393-1.426 0-.393-.394-.393-1.032 0-1.426L18.573 20l-6.278-6.28c-.393-.393-.393-1.031 0-1.425z" transform="translate(-194.000000, -68.000000) translate(0.000000, 62.000000) translate(194.000000, 6.000000)"/>
</svg>