<svg xmlns="http://www.w3.org/2000/svg" width="124" height="84" viewBox="0 0 124 84" fill="currentColor">
    <path fill-rule="evenodd" d="M77 46c.552 0 1 .448 1 1v15c0 1.105-.895 2-2 2H48c-1.105 0-2-.895-2-2V47c0-.552.448-1 1-1s1 .448 1 1v14c0 .552.448 1 1 1h26c.552 0 1-.448 1-1V47c0-.552.448-1 1-1zM62.142 32c.552 0 1 .448 1 1v19.514l5.293-5.292c.39-.39 1.024-.39 1.414 0 .39.39.39 1.024 0 1.414l-7.07 7.071c-.391.39-1.025.39-1.415 0l-7.071-7.071c-.39-.39-.39-1.024 0-1.414.39-.39 1.024-.39 1.414 0l5.435 5.434V33c0-.552.448-1 1-1z" opacity=".4" transform="translate(-1423 -348) translate(1423 348)"/>
</svg>
