<?xml version="1.0" encoding="UTF-8"?>
<svg viewBox="0 0 40 40" version="1.1">
    <g id="c01_RF_M_All_Card" transform="translate(-1464.000000, -1028.000000)">
        <g id="Group-3" transform="translate(1342.000000, 1028.000000)">
            <g id="btn_selectAll" transform="translate(122.000000, 0.000000)">
                <path d="M27.0311224,22.9303389 C27.3599962,22.6020301 27.3599962,22.0708809 27.0311224,21.7446632 C26.7043433,21.4184456 26.1722799,21.4184456 25.8455008,21.7446632 L22.7450843,24.835744 C22.5816948,24.9988528 22.5,25.2121489 22.5,25.4317185 C22.5,25.6450147 22.5816948,25.8562197 22.7450843,26.0276931 L28.067723,31.2553368 C28.3945021,31.5815544 28.9265655,31.5815544 29.2533446,31.2553368 C29.5822185,30.9374837 29.5822185,30.4063344 29.2533446,30.0801168 L24.521422,25.4317185 L27.0311224,22.9303389 Z" id="icon-back-copy" fill="#76C0FE" transform="translate(26.000000, 26.500000) rotate(-90.000000) translate(-26.000000, -26.500000) "></path>
                <path d="M17,21 C18.1045695,21 19,21.8954305 19,23 L19,29 C19,30.1045695 18.1045695,31 17,31 L11,31 C9.8954305,31 9,30.1045695 9,29 L9,23 C9,21.8954305 9.8954305,21 11,21 L17,21 Z M17,23 L11,23 L11,29 L17,29 L17,23 Z" id="Combined-Shape-Copy" fill="#FFFFFF"></path>
                <path d="M29,9 C30.1045695,9 31,9.8954305 31,11 L31,17 C31,18.1045695 30.1045695,19 29,19 L23,19 C21.8954305,19 21,18.1045695 21,17 L21,11 C21,9.8954305 21.8954305,9 23,9 L29,9 Z M29,11 L23,11 L23,17 L29,17 L29,11 Z" id="Combined-Shape-Copy-4" fill="#FFFFFF"></path>
                <path d="M17,9 C18.1045695,9 19,9.8954305 19,11 L19,17 C19,18.1045695 18.1045695,19 17,19 L11,19 C9.8954305,19 9,18.1045695 9,17 L9,11 C9,9.8954305 9.8954305,9 11,9 L17,9 Z M17,11 L11,11 L11,17 L17,17 L17,11 Z" id="Combined-Shape-Copy-2" fill="#FFFFFF"></path>
            </g>
        </g>
    </g>
</svg>