<svg fill="currentColor" xmlns="http://www.w3.org/2000/svg" width="40" height="40" viewBox="0 0 40 40">
    <g transform="translate(-460.000000, -952.000000) translate(460.000000, 952.000000)">
        <g fill="#FFF" transform="translate(11.000000, 11.000000)">
            <path d="M9 0c4.97 0 9 4.03 9 9s-4.03 9-9 9-9-4.03-9-9 4.03-9 9-9zm0 2C5.134 2 2 5.134 2 9s3.134 7 7 7 7-3.134 7-7-3.134-7-7-7z"/>
            <rect width="10" height="2" x="4" y="8" rx="1"/>
            <path d="M15.542 14.265l2.193 2.193c.353.353.353.925 0 1.277-.352.353-.924.353-1.277 0l-2.193-2.193c-.353-.353-.353-.925 0-1.277.352-.353.924-.353 1.277 0z"/>
        </g>
    </g>
</svg>
