<svg width="40" height="40" viewBox="0 0 40 32" fill="none" xmlns="http://www.w3.org/2000/svg">
<g filter="url(#filter0_d_342_11791)">
<rect x="4" width="32" height="32" rx="4" fill="tansparent" fill-opacity="0.4" shape-rendering="crispEdges"/>
<!-- <rect x="4.5" y="0.5" width="31" height="31" rx="3.5" stroke="white" stroke-opacity="0.4" shape-rendering="crispEdges"/> -->
</g>
<path d="M11 14V10.1667C11 10.0585 11.0351 9.95321 11.1 9.86667L12.35 8.2C12.4444 8.0741 12.5926 8 12.75 8H20.25C20.4074 8 20.5556 8.0741 20.65 8.2L22 10H30C30.5523 10 31 10.4477 31 11V23C31 23.5523 30.5523 24 30 24H12C11.4477 24 11 23.5523 11 23V21" stroke="white" stroke-width="3" stroke-linecap="round"/>
<path d="M16 14L19 17M16 20L19 17M19 17H8" stroke="white" stroke-width="2" stroke-linecap="round" stroke-linejoin="round"/>
<defs>
<filter id="filter0_d_342_11791" x="0" y="0" width="40" height="40" filterUnits="userSpaceOnUse" color-interpolation-filters="sRGB">
<feFlood flood-opacity="0" result="BackgroundImageFix"/>
<feColorMatrix in="SourceAlpha" type="matrix" values="0 0 0 0 0 0 0 0 0 0 0 0 0 0 0 0 0 0 127 0" result="hardAlpha"/>
<feOffset dy="4"/>
<feGaussianBlur stdDeviation="2"/>
<feComposite in2="hardAlpha" operator="out"/>
<feColorMatrix type="matrix" values="0 0 0 0 0 0 0 0 0 0 0 0 0 0 0 0 0 0 0.1 0"/>
<feBlend mode="normal" in2="BackgroundImageFix" result="effect1_dropShadow_342_11791"/>
<feBlend mode="normal" in="SourceGraphic" in2="effect1_dropShadow_342_11791" result="shape"/>
</filter>
</defs>
</svg>
