<?xml version="1.0" encoding="UTF-8"?>
<svg width="1em" height="1em" viewBox="0 0 32 32" fill="currentColor" version="1.1" xmlns="http://www.w3.org/2000/svg" xmlns:xlink="http://www.w3.org/1999/xlink">
    <g id="airaTrack" stroke="none" stroke-width="1" fill="none" fill-rule="evenodd">
        <g id="c02_RF_M_Uni_Card" transform="translate(-1632.000000, -1032.000000)">
            <g id="Group-2" transform="translate(1632.000000, 1032.000000)">
                <rect id="Rectangle" fill-rule="evenodd" x="0" y="0" width="32" height="32" rx="4"></rect>
                <path d="M11.9998104,11.9993476 L12,22 L20,22 L19.9998104,11.9993476 L22,12 L22,22 C22,23.1045695 21.1045695,24 20,24 L12,24 C10.8954305,24 10,23.1045695 10,22 L10,12 L11.9998104,11.9993476 Z M21.9791509,7.70424912 C22.0750542,8.24814342 21.7118857,8.76680181 21.1679914,8.86270505 L9.35029832,10.9464832 C8.80640402,11.0423864 8.28774563,10.6792179 8.19184239,10.1353236 C8.09593915,9.5914293 8.45910766,9.07277091 9.00300196,8.97686767 L13.9270407,8.10862679 L13.9270407,8.10862679 C13.8311375,7.56473248 14.194306,7.0460741 14.7382003,6.95017086 C15.2820946,6.85426761 15.800753,7.21743613 15.8966562,7.76133043 L20.820695,6.89308954 C21.3645893,6.7971863 21.8832477,7.16035481 21.9791509,7.70424912 Z" id="Combined-Shape" fill="#FFFFFF"></path>
            </g>
        </g>
    </g>
</svg>