<svg xmlns="http://www.w3.org/2000/svg" width="40" height="40" viewBox="0 0 40 40">
    <g fill="none" fill-rule="evenodd">
        <g transform="translate(-1800.000000, -884.000000) translate(480.000000, 884.000000) translate(1320.000000, 0.000000)">
            <path fill="#FFF" d="M23 10c1.105 0 2 .895 2 2h4c1.105 0 2 .895 2 2v12c0 1.105-.895 2-2 2H11c-1.105 0-2-.895-2-2V14c0-1.105.895-2 2-2h4c0-1.105.895-2 2-2h6zm0 2h-6v2h-6v12h18V14h-6v-2z"/>
            <circle cx="27" cy="16" r="1" fill="#FFF"/>
            <path fill="#FFF" d="M20 15c2.761 0 5 2.239 5 5s-2.239 5-5 5-5-2.239-5-5 2.239-5 5-5zm0 2c-1.657 0-3 1.343-3 3s1.343 3 3 3 3-1.343 3-3-1.343-3-3-3z"/>
        </g>
    </g>
</svg>
