<svg xmlns="http://www.w3.org/2000/svg" width="40" height="40" viewBox="0 0 40 40">
    <g transform="translate(-374.000000, -709.000000) translate(16.000000, 390.000000) translate(0.000000, 256.000000) translate(358.000000, 63.000000)">
        <g transform="translate(10.000000, 12.221825)">
            <path stroke="#FFF" stroke-width="2" d="M10 13.778c3.485 0 6.658-1.792 9.519-5.376h0c.291-.365.291-.883 0-1.248C16.659 3.57 13.485 1.778 10 1.778c-3.485 0-6.658 1.792-9.519 5.376h0c-.291.365-.291.883 0 1.248 2.86 3.584 6.034 5.376 9.519 5.376z"/>
            <circle cx="10" cy="7.778" r="3" stroke="#FFF" stroke-width="2"/>
            <rect width="2" height="20" x="9" y="-2.222" fill="#FFF" rx="1" transform="translate(10.000000, 7.778175) rotate(-45.000000) translate(-10.000000, -7.778175)"/>
        </g>
    </g>
</svg>
