<svg xmlns="http://www.w3.org/2000/svg" xmlns:xlink="http://www.w3.org/1999/xlink" viewBox="0 0 287.33 56.69"><defs><style>.cls-1{fill:none;}.cls-2{clip-path:url(#clip-path);}.cls-3{fill:#20292f;}.cls-4{fill:#1d282d;}.cls-5{fill:#1c252b;}.cls-6{fill:#3699cc;}.cls-7,.cls-8{opacity:0.33;isolation:isolate;}.cls-7{fill:url(#未命名漸層_2);}.cls-8{fill:url(#未命名漸層_2-2);}.cls-9{fill:#f3f4f4;}.cls-10{fill:url(#未命名漸層_3);}.cls-11{fill:#fff;}.cls-12{fill:#2978b5;}.cls-13{fill:#666464;}</style><clipPath id="clip-path"><path class="cls-1" d="M277.21,49.25H242a3.3,3.3,0,0,1-3.3-3.3h0V10.74a3.3,3.3,0,0,1,3.3-3.3h35.21a3.3,3.3,0,0,1,3.3,3.3V46a3.3,3.3,0,0,1-3.3,3.3"/></clipPath><linearGradient id="未命名漸層_2" x1="201.64" y1="3491.3" x2="201.69" y2="3491.39" gradientTransform="translate(-80982.17 161618.02) rotate(-150) scale(51.72)" gradientUnits="userSpaceOnUse"><stop offset="0" stop-color="#fff"/><stop offset="1" stop-color="#040000"/></linearGradient><linearGradient id="未命名漸層_2-2" x1="201.82" y1="3491.43" x2="201.77" y2="3491.34" xlink:href="#未命名漸層_2"/><linearGradient id="未命名漸層_3" x1="272.19" y1="3461.13" x2="272.41" y2="3461.13" gradientTransform="translate(13094.21 163222.41) rotate(180) scale(47.15)" gradientUnits="userSpaceOnUse"><stop offset="0" stop-color="#f3f4f4"/><stop offset="0.5" stop-color="#f3f4f4"/><stop offset="0.67" stop-color="#f1f1f0"/><stop offset="0.77" stop-color="#e8e9e9"/><stop offset="0.86" stop-color="#dadbdb"/><stop offset="0.94" stop-color="#c7c6c6"/><stop offset="1" stop-color="#aeaeae"/></linearGradient></defs><g id="圖層_4" data-name="圖層 4"><g id="Layer_1" data-name="Layer 1"><g class="cls-2"><path class="cls-3" d="M277.21,49.25H242a3.3,3.3,0,0,1-3.3-3.3h0V10.74a3.3,3.3,0,0,1,3.3-3.3h35.21a3.3,3.3,0,0,1,3.3,3.3V46a3.3,3.3,0,0,1-3.3,3.3"/><polyline class="cls-4" points="281.6 6.32 237.59 50.33 281.6 50.33 281.6 6.29"/><polygon class="cls-5" points="238.73 7.42 281.64 50.33 237.63 50.33 237.63 6.32 238.73 7.42"/></g><polyline class="cls-6" points="263.36 17.61 266.7 17.61 273.92 27.84 270.6 27.84 263.4 17.61"/><polyline class="cls-7" points="270.31 22.73 268.66 25.09 270.6 27.84 273.89 27.84"/><polyline class="cls-8" points="266.68 17.61 263.4 17.61 267 22.73 269.77 21.99 268.2 19.73 266.7 17.61"/><polygon class="cls-6" points="266.72 27.84 263.4 27.84 270.62 17.61 273.92 17.61 266.72 27.84"/><path class="cls-9" d="M260.19,24.22a4.81,4.81,0,0,0-2-2.3,6.37,6.37,0,0,0-3.26-.78,6,6,0,0,0-2.86.69,7.62,7.62,0,0,0-2,1.52l0,6.16a5.15,5.15,0,0,1,.38-2.49,3.27,3.27,0,0,1,1.23-1.74,3.18,3.18,0,0,1,1.82-.59,2.2,2.2,0,0,1,2,1A7.4,7.4,0,0,1,256,29V39h4.62V27.85a10,10,0,0,0-.48-3.63"/><path class="cls-10" d="M254.93,21.14a6,6,0,0,0-2.86.69,6.78,6.78,0,0,0-1.2.8,7.46,7.46,0,0,0-.77.72l0,6.16a5.15,5.15,0,0,1,.38-2.49,3.27,3.27,0,0,1,1.23-1.74,3.18,3.18,0,0,1,1.82-.59,2.2,2.2,0,0,1,2,1A7.4,7.4,0,0,1,256,29V39h4.62V27.76c0-.62,0-1.18-.08-1.67a6.49,6.49,0,0,0-.4-1.87,6.66,6.66,0,0,0-.45-.83,4.84,4.84,0,0,0-1.55-1.47,6.37,6.37,0,0,0-3.26-.78"/><rect class="cls-11" x="246.35" y="21.5" width="4.61" height="17.52"/></g><path class="cls-12" d="M35.51,40c0,2.24,1.21,6.23,1.53,8.57H28.35a28.23,28.23,0,0,1-.51-4c-1.37,2.69-4.48,4.58-9.26,4.58C10.39,49.15,7.49,44,7.49,39c0-6,4.13-10.87,15.6-10.87H27v-2.4c0-2.71-.84-4.81-4.72-4.81s-4.77,2-5.08,4.4H8.77c.35-5.23,3.48-10.53,13.63-10.53,7.82,0,13.11,2.7,13.11,10.89Zm-8.24-6.27h-4c-5.94,0-7,2.42-7,4.63s1.35,4.2,4.66,4.2c5.19,0,6.41-3.46,6.41-8.13Z"/><path class="cls-12" d="M40.35,19.13H49V48.57H40.35Z"/><path class="cls-12" d="M54.24,28.28c0-5.44,0-8.93-.13-11.21h8.47a54.89,54.89,0,0,1,.23,5.81c1.11-2.78,4-6.32,8.06-6.33v8.78c-4.86-.1-7.94,2.2-7.94,9.8V48.57H54.24Z"/><path class="cls-12" d="M98.89,40c0,2.24,1.22,6.23,1.53,8.57H91.73a28.23,28.23,0,0,1-.51-4c-1.37,2.69-4.48,4.58-9.26,4.58C73.77,49.15,70.87,44,70.87,39c0-6,4.13-10.87,15.6-10.87h3.89v-2.4c0-2.71-.83-4.81-4.72-4.81s-4.77,2-5.08,4.4H72.15c.35-5.23,3.48-10.53,13.63-10.53,7.82,0,13.11,2.7,13.11,10.89Zm-8.24-6.27h-4c-5.94,0-7,2.42-7,4.63s1.34,4.2,4.65,4.2c5.19,0,6.41-3.46,6.41-8.13Z"/><rect class="cls-12" x="40.35" y="7.44" width="8.69" height="7.75"/><path class="cls-13" d="M96.88,10.45V8.31h30.85v2.14H113.52V48.57H111V10.45Z"/><path class="cls-13" d="M128.86,26H129a6.91,6.91,0,0,1,1.44-2.65A10.22,10.22,0,0,1,133,21.22a12.69,12.69,0,0,1,3.33-1.38,13.35,13.35,0,0,1,3.81-.42v2.14a10.31,10.31,0,0,0-3.87.34,9.44,9.44,0,0,0-4.14,2.48A18.8,18.8,0,0,0,130.75,26a7.48,7.48,0,0,0-1,1.75,11.24,11.24,0,0,0-.62,2.14,19.16,19.16,0,0,0-.28,2.82V48.57h-2.14v-29h2.14Z"/><path class="cls-13" d="M161.62,42.82h-.11A8.87,8.87,0,0,1,160,45.27a10.18,10.18,0,0,1-2.34,2.06,11,11,0,0,1-3.13,1.41,13.6,13.6,0,0,1-3.83.51q-4.62,0-7.16-2T141,41.07a7.69,7.69,0,0,1,1-4.14,7.79,7.79,0,0,1,2.57-2.54,10.89,10.89,0,0,1,3.44-1.32,33.71,33.71,0,0,1,3.64-.57l3.32-.28a19.86,19.86,0,0,0,3.64-.53,4.74,4.74,0,0,0,2-1,2.89,2.89,0,0,0,.85-1.66,16.27,16.27,0,0,0,.17-2.54,5.38,5.38,0,0,0-.45-2.2,4.93,4.93,0,0,0-1.41-1.81,7.29,7.29,0,0,0-2.48-1.24,13.35,13.35,0,0,0-3.73-.45,9.72,9.72,0,0,0-6.28,1.92,7.6,7.6,0,0,0-2.63,5.81h-2.14c.15-3.2,1.18-5.59,3.08-7.19s4.59-2.4,8.09-2.4,6,.69,7.64,2.06a6.75,6.75,0,0,1,2.39,5.39V43.22c0,.41,0,.82,0,1.24a4.37,4.37,0,0,0,.2,1.13,1.67,1.67,0,0,0,.56.81,1.79,1.79,0,0,0,1.13.31,9.46,9.46,0,0,0,1.58-.17v1.81a6.77,6.77,0,0,1-1.75.22,5.31,5.31,0,0,1-2.06-.33,2.73,2.73,0,0,1-1.15-.91,3.4,3.4,0,0,1-.54-1.32,9.52,9.52,0,0,1-.14-1.66Zm0-10.71a4,4,0,0,1-2.4,1.29,28.26,28.26,0,0,1-3.58.51l-3.61.34q-1.58.16-3.15.48a9.48,9.48,0,0,0-2.85,1,5.83,5.83,0,0,0-2.06,2,6.09,6.09,0,0,0-.79,3.29,5.62,5.62,0,0,0,2,4.77,9,9,0,0,0,5.58,1.55,10.91,10.91,0,0,0,5.81-1.33,10.15,10.15,0,0,0,3.27-3,9.33,9.33,0,0,0,1.44-3.33,13.68,13.68,0,0,0,.31-2.17Z"/><path class="cls-13" d="M192.41,28.55a8.44,8.44,0,0,0-1-3.38,7.51,7.51,0,0,0-2.12-2.42,9.55,9.55,0,0,0-3-1.47,12.86,12.86,0,0,0-3.69-.51,10.16,10.16,0,0,0-4.79,1.1,10.6,10.6,0,0,0-3.5,2.94A13.28,13.28,0,0,0,172.17,29a16,16,0,0,0-.74,4.82,20.55,20.55,0,0,0,.68,5.41,12.24,12.24,0,0,0,2.09,4.32,9.63,9.63,0,0,0,3.49,2.84,11.07,11.07,0,0,0,4.91,1,10.2,10.2,0,0,0,3.75-.68,10.07,10.07,0,0,0,3.05-1.86A9.88,9.88,0,0,0,191.57,42a11.53,11.53,0,0,0,1.12-3.64h2.15A13.74,13.74,0,0,1,193.43,43a11.33,11.33,0,0,1-2.71,3.41A11.61,11.61,0,0,1,187,48.52,14.45,14.45,0,0,1,176.54,48a11.46,11.46,0,0,1-4.12-3.41,14.56,14.56,0,0,1-2.37-4.93,22,22,0,0,1-.76-5.84,18.36,18.36,0,0,1,.88-5.75,13.9,13.9,0,0,1,2.56-4.74,12.21,12.21,0,0,1,4.18-3.21,13,13,0,0,1,5.69-1.19,15.81,15.81,0,0,1,4.43.6,11.32,11.32,0,0,1,3.66,1.77,9.23,9.23,0,0,1,2.62,3,10.68,10.68,0,0,1,1.25,4.25Z"/><path class="cls-13" d="M200,8.31h2.14V35L220,19.59h3.1L210.4,30.42,224,48.57h-2.93L208.71,32.05l-6.6,5.58V48.57H200Z"/></g></svg>