<svg width="1em" height="1em" viewBox="0 0 32 32" version="1.1"  fill="currentColor" xmlns="http://www.w3.org/2000/svg" xmlns:xlink="http://www.w3.org/1999/xlink">
    <path fill-rule="evenodd" d="M16.4416231,6 C16.9131432,6 17.3205968,6.32937603 17.4194157,6.79042492 L17.9521218,9.27581649 C18.4512446,9.42046694 18.9273914,9.61918425 19.3738048,9.86521097 L21.5084792,8.48414822 C21.9043644,8.22802374 22.4253723,8.28323665 22.7587826,8.61664695 L23.3831769,9.24104131 C23.7166671,9.57453149 23.7718171,10.0956947 23.515512,10.4915976 L22.134236,12.6251919 C22.3803536,13.0715971 22.5791592,13.5477456 22.7238937,14.0468783 L25.2098426,14.5804155 C25.6707641,14.679339 26,15.0867332 26,15.5581507 L26,16.4418493 C26,16.9132668 25.6707641,17.320661 25.2098426,17.4195845 L22.7238937,17.9531217 C22.5792676,18.4518805 22.3806515,18.9276895 22.134789,19.3738048 L23.5158518,21.5084792 C23.7719763,21.9043644 23.7167634,22.4253723 23.3833531,22.7587826 L22.7587826,23.3833531 C22.4253723,23.7167634 21.9043644,23.7719763 21.5084792,23.5158518 L19.3738048,22.134789 C18.9273914,22.3808157 18.4512446,22.5795331 17.9521218,22.7241835 L17.4194157,25.2095751 C17.3205968,25.670624 16.9131432,26 16.4416231,26 L15.5581507,26 C15.0867332,26 14.679339,25.6707641 14.5804155,25.2098426 L14.0468783,22.7238937 C13.5481195,22.5792676 13.0723105,22.3806515 12.6261952,22.134789 L10.4915208,23.5158518 C10.0956356,23.7719763 9.57462773,23.7167634 9.24121743,23.3833531 L8.61664695,22.7587826 C8.28323665,22.4253723 8.22802374,21.9043644 8.48414822,21.5084792 L9.86521097,19.3738048 C9.61918425,18.9273914 9.42046694,18.4512446 9.27581649,17.9521218 L6.79042492,17.4194157 C6.32937603,17.3205968 6,16.9131432 6,16.4416231 L6,15.5581507 C6,15.0867332 6.32923586,14.679339 6.79015735,14.5804155 L9.27610634,14.0468783 C9.42073236,13.5481195 9.61934854,13.0723105 9.86521097,12.6261952 L8.48414822,10.4915208 C8.22802374,10.0956356 8.28323665,9.57462773 8.61664695,9.24121743 L9.24121743,8.61664695 C9.57462773,8.28323665 10.0956356,8.22802374 10.4915208,8.48414822 L12.6261952,9.86521097 C13.0723105,9.61934854 13.5481195,9.42073236 14.0468783,9.27610634 L14.5804155,6.79015735 C14.679339,6.32923586 15.0867332,6 15.5581507,6 L16.4416231,6 Z M16,11.4545455 C13.4896148,11.4545455 11.4545455,13.4896148 11.4545455,16 C11.4545455,18.5103852 13.4896148,20.5454545 16,20.5454545 C18.5103852,20.5454545 20.5454545,18.5103852 20.5454545,16 C20.5454545,13.4896148 18.5103852,11.4545455 16,11.4545455 Z"></path>
</svg>