<svg fill="currentColor" baseProfile="tiny-ps" xmlns="http://www.w3.org/2000/svg" viewBox="0 0 320 458" width="320" height="458">
	<path fill-rule="evenodd" class="shp0" d="M102.22 227.04L273.1 399.97C285.38 412.4 285.26 432.44 272.83 444.72C260.4 457 240.37 456.88 228.08 444.45L34.95 249.01C28.82 242.79 25.78 234.68 25.83 226.58C25.88 218.49 29.02 210.41 35.22 204.27L230.67 11.15C243.11 -1.14 263.14 -1.02 275.42 11.42C287.7 23.84 287.58 43.88 275.15 56.16L102.22 227.04ZM-22.3 458.27L-78.79 457.94C-82.13 457.92 -84.82 455.19 -84.8 451.85L-82.2 15.56C-82.18 12.21 -79.46 9.53 -76.11 9.55L-19.62 9.89C-16.27 9.91 -13.59 12.62 -13.61 15.97L-16.21 452.26C-16.23 455.6 -18.95 458.29 -22.3 458.27Z" />
</svg>