<svg viewBox="0 0 40 40">
    <g id="airaTrack" stroke="none" stroke-width="1" fill="none" fill-rule="evenodd">
        <g id="c01_RF_M_All_Card" transform="translate(-1516.000000, -1028.000000)">
            <g id="Group-3" transform="translate(1342.000000, 1028.000000)">
                <g id="btn_deSelectAll" transform="translate(174.000000, 0.000000)">
                    <path d="M22.2583098,22.2547974 C22.6027229,21.9103843 23.1611268,21.9103843 23.5055399,22.2547974 L25.9987528,24.7492576 L28.4944601,22.2547974 C28.8388732,21.9103843 29.3972771,21.9103843 29.7416902,22.2547974 C30.0861033,22.5992105 30.0861033,23.1576144 29.7416902,23.5020275 L27.2459828,25.9964876 L29.7416902,28.4909477 C30.0861033,28.8353608 30.0861033,29.3937647 29.7416902,29.7381778 C29.3972771,30.0825909 28.8388732,30.0825909 28.4944601,29.7381778 L25.9987528,27.2437177 L23.5055399,29.7381778 C23.1611268,30.0825909 22.6027229,30.0825909 22.2583098,29.7381778 C21.9138967,29.3937647 21.9138967,28.8353608 22.2583098,28.4909477 L24.7515227,25.9964876 L22.2583098,23.5020275 C21.9138967,23.1576144 21.9138967,22.5992105 22.2583098,22.2547974 Z" id="Path" fill="#FE7676"></path>
                    <path d="M17,21 C18.1045695,21 19,21.8954305 19,23 L19,29 C19,30.1045695 18.1045695,31 17,31 L11,31 C9.8954305,31 9,30.1045695 9,29 L9,23 C9,21.8954305 9.8954305,21 11,21 L17,21 Z M17,23 L11,23 L11,29 L17,29 L17,23 Z M29,9 C30.1045695,9 31,9.8954305 31,11 L31,17 C31,18.1045695 30.1045695,19 29,19 L23,19 C21.8954305,19 21,18.1045695 21,17 L21,11 C21,9.8954305 21.8954305,9 23,9 L29,9 Z M17,9 C18.1045695,9 19,9.8954305 19,11 L19,17 C19,18.1045695 18.1045695,19 17,19 L11,19 C9.8954305,19 9,18.1045695 9,17 L9,11 C9,9.8954305 9.8954305,9 11,9 L17,9 Z M29,11 L23,11 L23,17 L29,17 L29,11 Z M17,11 L11,11 L11,17 L17,17 L17,11 Z" id="Combined-Shape" fill="#FFFFFF"></path>
                </g>
            </g>
        </g>
    </g>
</svg>