<svg width="102" height="20" viewBox="0 0 102 20" fill="none" xmlns="http://www.w3.org/2000/svg">
<path fill-rule="evenodd" clip-rule="evenodd" d="M9.28531 12.3478H7.39624C4.60985 12.3478 4.0902 13.4816 4.0902 14.5216C4.0902 15.5802 4.7215 16.4927 6.27493 16.4927C8.7119 16.4927 9.28531 14.8706 9.28531 12.6747V12.3478ZM13.1496 15.292C13.1496 16.343 13.7216 18.2161 13.8684 19.3189H9.78911C9.67263 18.8547 9.57959 17.9182 9.5534 17.4396C8.90694 18.7016 7.44862 19.5892 5.20324 19.5892C1.36032 19.5892 -0.000137329 17.1913 -0.000137329 14.8423C-0.000137329 12.0444 1.93717 9.73748 7.32388 9.73748H9.15023V8.60714C9.15023 7.3361 8.75532 6.35059 6.93242 6.35059C5.12881 6.35059 4.69255 7.27335 4.54782 8.4161H0.600146C0.764863 5.96162 2.23559 3.47266 6.99651 3.47266C10.6671 3.47266 13.1496 4.73748 13.1496 8.58576V15.292Z" fill="white"/>
<path fill-rule="evenodd" clip-rule="evenodd" d="M15.4227 19.3193H19.502V5.48828H15.4227V19.3193Z" fill="white"/>
<path fill-rule="evenodd" clip-rule="evenodd" d="M21.9411 9.78907C21.9411 7.23527 21.9376 5.5939 21.8811 4.52424H25.855C25.9384 5.19665 25.9646 6.18355 25.9646 7.25045C26.4877 5.94631 27.8502 4.28493 29.7489 4.27734V8.40355C27.4656 8.35321 26.0211 9.43596 26.0211 13.0056V15.6932V19.3194H21.9411V9.78907Z" fill="white"/>
<path fill-rule="evenodd" clip-rule="evenodd" d="M39.0342 12.3478H37.1451C34.3587 12.3478 33.8391 13.4816 33.8391 14.5216C33.8391 15.5802 34.4704 16.4927 36.0238 16.4927C38.4601 16.4927 39.0342 14.8706 39.0342 12.6747V12.3478ZM42.8984 15.292C42.8984 16.343 43.4705 18.2161 43.6166 19.3189H39.538C39.4215 18.8547 39.3284 17.9182 39.3023 17.4396C38.6558 18.7016 37.1975 19.5892 34.9521 19.5892C31.1092 19.5892 29.7487 17.1913 29.7487 14.8423C29.7487 12.0444 31.686 9.73748 37.072 9.73748H38.8984V8.60714C38.8984 7.3361 38.5042 6.35059 36.6813 6.35059C34.8777 6.35059 34.4414 7.27335 34.2967 8.4161H30.349C30.5137 5.96162 31.9844 3.47266 36.7454 3.47266C40.4153 3.47266 42.8984 4.73748 42.8984 8.58576V15.292Z" fill="white"/>
<path fill-rule="evenodd" clip-rule="evenodd" d="M15.4227 3.64H19.502V0H15.4227V3.64Z" fill="white"/>
<path fill-rule="evenodd" clip-rule="evenodd" d="M43.3369 1.41441V0.408203H57.8154V1.41441H51.1447V19.3192H49.9807V1.41441H43.3369Z" fill="white"/>
<path fill-rule="evenodd" clip-rule="evenodd" d="M59.2704 8.72451H59.3497C59.473 8.28313 59.6984 7.86865 60.0251 7.47969C60.3511 7.0921 60.7487 6.75624 61.216 6.47348C61.6833 6.19141 62.2043 5.97486 62.7777 5.82451C63.3511 5.67486 63.9466 5.60796 64.5648 5.62589V6.63279C64.0348 6.56175 63.4304 6.61486 62.7515 6.79072C62.0713 6.96796 61.4234 7.35693 60.8059 7.95693C60.5585 8.22175 60.3428 8.47762 60.1574 8.72451C59.9727 8.9721 59.8176 9.24589 59.6943 9.5452C59.5709 9.84658 59.473 10.1811 59.4027 10.5521C59.3324 10.9231 59.2876 11.3645 59.2704 11.8762V19.319H58.2649V5.7052H59.2704V8.72451Z" fill="white"/>
<path fill-rule="evenodd" clip-rule="evenodd" d="M73.987 11.5866C73.7396 11.8873 73.3654 12.0894 72.8616 12.1956C72.3591 12.3011 71.7988 12.3804 71.1813 12.4342L69.4873 12.5928C68.9931 12.6459 68.499 12.7211 68.0049 12.8176C67.5114 12.9156 67.0655 13.0783 66.6685 13.308C66.2715 13.5376 65.949 13.8507 65.7023 14.248C65.4549 14.6459 65.3315 15.1625 65.3315 15.7969C65.3315 16.8038 65.6492 17.5501 66.2846 18.0356C66.9201 18.5218 67.7933 18.7638 68.9049 18.7638C70.0517 18.7638 70.9601 18.5563 71.6314 18.1418C72.3019 17.7266 72.8133 17.2501 73.1669 16.7114C73.5191 16.1728 73.7437 15.6521 73.8409 15.1487C73.9381 14.6459 73.987 14.3052 73.987 14.1294V11.5866ZM73.987 16.6183H73.9339C73.7747 17.0252 73.5452 17.4087 73.2461 17.7707C72.945 18.1328 72.5797 18.4556 72.1476 18.7376C71.7148 19.0197 71.2247 19.2411 70.6782 19.3997C70.131 19.559 69.5307 19.6383 68.8787 19.6383C67.4314 19.6383 66.3108 19.3245 65.5169 18.6983C64.7236 18.0707 64.326 17.1045 64.326 15.7969C64.326 15.0032 64.4852 14.3542 64.8029 13.8507C65.1199 13.348 65.5217 12.9507 66.0069 12.659C66.4921 12.368 67.0296 12.1604 67.6217 12.0363C68.2123 11.9135 68.7809 11.8245 69.3281 11.7721L70.8905 11.639C71.6134 11.5866 72.1827 11.5025 72.5969 11.388C73.0118 11.2728 73.3254 11.1135 73.537 10.9114C73.7486 10.7087 73.8809 10.4473 73.9339 10.1301C73.987 9.81212 74.0132 9.41488 74.0132 8.93764C74.0132 8.5666 73.9429 8.22246 73.8009 7.90453C73.6596 7.5866 73.4398 7.30453 73.14 7.05764C72.8395 6.81005 72.4515 6.61626 71.9753 6.47488C71.499 6.3335 70.9167 6.26247 70.2282 6.26247C69.0104 6.26247 68.0276 6.56315 67.2778 7.16315C66.5272 7.76384 66.1165 8.67281 66.0469 9.89143H65.0406C65.1109 8.39074 65.592 7.26453 66.4831 6.51488C67.3736 5.76453 68.6403 5.38867 70.2812 5.38867C71.9222 5.38867 73.1173 5.71074 73.8678 6.35557C74.6176 7.0004 74.9925 7.84315 74.9925 8.88453V16.8038C74.9925 16.999 74.9967 17.1928 75.0063 17.3866C75.0146 17.5811 75.0456 17.7576 75.098 17.9163C75.1511 18.0749 75.2393 18.2038 75.3633 18.3004C75.4867 18.3976 75.6631 18.4459 75.8926 18.4459C76.0691 18.4459 76.3158 18.4197 76.6335 18.3666V19.2142C76.3689 19.2852 76.0952 19.3204 75.8127 19.3204C75.4074 19.3204 75.0856 19.2673 74.8471 19.1611C74.6087 19.0549 74.4281 18.9142 74.3047 18.7376C74.1807 18.5611 74.0966 18.3535 74.0532 18.1149C74.0084 17.8763 73.987 17.6163 73.987 17.3335V16.6183Z" fill="white"/>
<path fill-rule="evenodd" clip-rule="evenodd" d="M87.7769 9.91764C87.7238 9.31764 87.5687 8.78729 87.3137 8.32798C87.0574 7.86936 86.7272 7.48936 86.3213 7.18936C85.9147 6.88936 85.4426 6.65971 84.905 6.50109C84.3668 6.34178 83.7885 6.26247 83.171 6.26247C82.3247 6.26247 81.5742 6.43488 80.9215 6.77902C80.2682 7.12315 79.7216 7.58246 79.2805 8.15626C78.8388 8.73005 78.5038 9.38384 78.275 10.1163C78.0455 10.8494 77.9304 11.6038 77.9304 12.3804C77.9304 13.299 78.0366 14.1466 78.2481 14.9238C78.4597 15.7011 78.7864 16.3756 79.2275 16.9494C79.6679 17.5232 80.2151 17.9694 80.8691 18.2873C81.5211 18.6052 82.2889 18.7638 83.171 18.7638C83.8064 18.7638 84.393 18.6583 84.9312 18.4459C85.4695 18.2342 85.9457 17.9432 86.3606 17.5721C86.7748 17.2018 87.1152 16.7556 87.3799 16.2342C87.6445 15.7135 87.8203 15.1445 87.9085 14.5266H88.9147C88.8086 15.3383 88.588 16.0625 88.2531 16.6976C87.9175 17.3335 87.4943 17.868 86.9829 18.3004C86.4702 18.7328 85.8885 19.0645 85.2351 19.2935C84.5825 19.5232 83.8947 19.6383 83.171 19.6383C82.0594 19.6383 81.111 19.4397 80.3254 19.0418C79.5411 18.6445 78.8967 18.1107 78.3942 17.4397C77.8905 16.7694 77.5204 15.9956 77.2819 15.1225C77.0441 14.248 76.9249 13.3342 76.9249 12.3804C76.9249 11.4273 77.0614 10.5266 77.3357 9.67902C77.6086 8.83212 78.0097 8.09005 78.5397 7.45488C79.0683 6.81902 79.7216 6.31557 80.4977 5.94453C81.2737 5.5735 82.1655 5.38867 83.171 5.38867C83.9126 5.38867 84.6045 5.48109 85.2489 5.6666C85.8933 5.85143 86.4667 6.13005 86.9691 6.50109C87.4722 6.87143 87.8823 7.34453 88.2 7.91833C88.5177 8.49212 88.7114 9.15833 88.7824 9.91764H87.7769Z" fill="white"/>
<path fill-rule="evenodd" clip-rule="evenodd" d="M90.6615 0.408203H91.6677V12.9358L100.058 5.70544H101.513L95.5582 10.791L101.937 19.3192H100.56L94.7642 11.5585L91.6677 14.1806V19.3192H90.6615V0.408203Z" fill="white"/>
</svg>
